# xmcd
#
# Track frame offsets: 
#        150
#        25058
#        49559
#        65804
#        81149
#        97148
#        120470
#        147538
#        179320
#        189323
#        203971
#        234051
#        252873
#        268172
#
# Disc length: 3819 seconds
#
# Revision: 0
# Processed by: cddbd v1.5.2PL0 Copyright (c) Steve Scherf et al.
# Submitted via: ExactAudioCopy v0.99pb4
#
DISCID=c30ee90e
DTITLE=The Gun Club - The Las Vegas Story (2009 Reissue Edition) Disc 
DTITLE=2
DYEAR=2009
DGENRE=Punk
TTITLE0=Walkin' With The Beast
TTITLE1=Run Through The Jungle
TTITLE2=Moonlight Motel
TTITLE3=The Lie
TTITLE4=John Hardy
TTITLE5=Bad America
TTITLE6=The Stranger In Our Town
TTITLE7=Death Party
TTITLE8=Fire Of Love
TTITLE9=Sexbeat
TTITLE10=Jack On Fire
TTITLE11=Louie Louie
TTITLE12=Do The Twist
TTITLE13=The House On Highland Avenue
EXTD=
EXTT0=
EXTT1=
EXTT2=
EXTT3=
EXTT4=
EXTT5=
EXTT6=
EXTT7=
EXTT8=
EXTT9=
EXTT10=
EXTT11=
EXTT12=
EXTT13=
PLAYORDER=
